# MagicaVoxel @ Ephtracy

# group
o 

# material
mtllib Zombie.mtl
usemtl palette

# normals
vn -1 0 0
vn 1 0 0
vn 0 0 1
vn 0 0 -1
vn 0 -1 0
vn 0 1 0

# texcoords
vt 0.771484 0.5
vt 0.794922 0.5
vt 0.818359 0.5
vt 0.841797 0.5
vt 0.857422 0.5
vt 0.876953 0.5
vt 0.900391 0.5

# verts
v -0.5 1.2 0.2
v -0.5 1.2 -0.6
v -0.5 1.3 0.1
v -0.5 1.3 0
v -0.5 1.3 -0.1
v -0.5 1.3 -0.2
v -0.5 1.3 -0.6
v -0.5 1.3 -0.7
v -0.5 1.4 0.2
v -0.5 1.4 0.1
v -0.5 1.4 0
v -0.5 1.4 -0.1
v -0.5 1.4 -0.2
v -0.5 1.4 -0.6
v -0.5 1.4 -0.7
v -0.3 0 0.2
v -0.3 0 -0.1
v -0.3 0 -0.2
v -0.3 0.1 0
v -0.3 0.1 -0.1
v -0.3 0.1 -0.2
v -0.3 0.2 0.1
v -0.3 0.2 0
v -0.3 0.3 0.1
v -0.3 0.3 0
v -0.3 0.5 0.2
v -0.3 0.5 0.1
v -0.3 0.6 0.2
v -0.3 0.6 0.1
v -0.3 0.7 0.3
v -0.3 0.7 0.2
v -0.3 0.7 0
v -0.3 0.7 -0.1
v -0.3 1 0
v -0.3 1 -0.1
v -0.3 1.1 0
v -0.3 1.1 -0.1
v -0.3 1.2 0.2
v -0.3 1.2 -0.1
v -0.3 1.4 0.3
v -0.3 1.4 0.2
v -0.3 1.5 0.4
v -0.3 1.5 0
v -0.3 1.5 -0.1
v -0.3 1.5 -0.2
v -0.3 1.6 0.2
v -0.3 1.6 0.1
v -0.3 1.6 0
v -0.3 1.6 -0.1
v -0.3 1.7 0.2
v -0.3 1.7 0.1
v -0.3 1.8 0.3
v -0.3 1.8 0.2
v -0.3 1.9 0.3
v -0.3 1.9 0.2
v -0.3 2 -0.1
v -0.3 2 -0.2
v -0.3 2.1 0.4
v -0.3 2.1 -0.1
v -0.3 2.1 -0.2
v -0.1 1.4 0.2
v -0.1 1.4 0
v -0.1 1.5 0.2
v -0.1 1.5 0
v 0.1 0 0.2
v 0.1 0 -0.2
v 0.1 0.1 0
v 0.1 0.1 -0.2
v 0.1 0.5 0.1
v 0.1 0.5 0
v 0.1 0.6 0.1
v 0.1 0.6 0
v 0.1 0.7 0.2
v 0.1 0.7 0
v 0.3 1.2 -0.1
v 0.3 1.2 -0.2
v 0.3 1.2 -0.4
v 0.3 1.2 -0.5
v 0.3 1.2 -0.6
v 0.3 1.3 -0.1
v 0.3 1.3 -0.2
v 0.3 1.3 -0.4
v 0.3 1.3 -0.5
v 0.3 1.3 -0.6
v 0.3 1.3 -0.7
v 0.3 1.4 -0.1
v 0.3 1.4 -0.7
v -0.3 1.2 -0.1
v -0.3 1.2 -0.2
v -0.3 1.2 -0.4
v -0.3 1.2 -0.5
v -0.3 1.2 -0.6
v -0.3 1.3 -0.1
v -0.3 1.3 -0.2
v -0.3 1.3 -0.4
v -0.3 1.3 -0.5
v -0.3 1.3 -0.6
v -0.3 1.3 -0.7
v -0.3 1.4 -0.1
v -0.3 1.4 -0.7
v -0.1 0 0.2
v -0.1 0 -0.2
v -0.1 0.1 0
v -0.1 0.1 -0.2
v -0.1 0.5 0.1
v -0.1 0.5 0
v -0.1 0.6 0.1
v -0.1 0.6 0
v -0.1 0.7 0.2
v -0.1 0.7 0
v 0.1 1.4 0.2
v 0.1 1.4 0
v 0.1 1.5 0.2
v 0.1 1.5 0
v 0.3 0 0.2
v 0.3 0 -0.1
v 0.3 0 -0.2
v 0.3 0.1 0
v 0.3 0.1 -0.1
v 0.3 0.1 -0.2
v 0.3 0.2 0.1
v 0.3 0.2 0
v 0.3 0.3 0.1
v 0.3 0.3 0
v 0.3 0.5 0.2
v 0.3 0.5 0.1
v 0.3 0.6 0.2
v 0.3 0.6 0.1
v 0.3 0.7 0.3
v 0.3 0.7 0.2
v 0.3 0.7 0
v 0.3 0.7 -0.1
v 0.3 1 0
v 0.3 1 -0.1
v 0.3 1.1 0
v 0.3 1.1 -0.1
v 0.3 1.2 0.2
v 0.3 1.2 -0.1
v 0.3 1.4 0.3
v 0.3 1.4 0.2
v 0.3 1.5 0.4
v 0.3 1.5 0
v 0.3 1.5 -0.1
v 0.3 1.5 -0.2
v 0.3 1.6 0.2
v 0.3 1.6 0.1
v 0.3 1.6 0
v 0.3 1.6 -0.1
v 0.3 1.7 0.2
v 0.3 1.7 0.1
v 0.3 1.8 0.3
v 0.3 1.8 0.2
v 0.3 1.9 0.3
v 0.3 1.9 0.2
v 0.3 2 -0.1
v 0.3 2 -0.2
v 0.3 2.1 0.4
v 0.3 2.1 -0.1
v 0.3 2.1 -0.2
v 0.5 1.2 0.2
v 0.5 1.2 -0.6
v 0.5 1.3 0.1
v 0.5 1.3 0
v 0.5 1.3 -0.1
v 0.5 1.3 -0.2
v 0.5 1.3 -0.6
v 0.5 1.3 -0.7
v 0.5 1.4 0.2
v 0.5 1.4 0.1
v 0.5 1.4 0
v 0.5 1.4 -0.1
v 0.5 1.4 -0.2
v 0.5 1.4 -0.6
v 0.5 1.4 -0.7
v -0.3 1.5 0.4
v -0.3 2.1 0.4
v -0.1 2 0.4
v -0.1 2.1 0.4
v 0.1 2 0.4
v 0.1 2.1 0.4
v 0.3 1.5 0.4
v 0.3 2.1 0.4
v -0.3 0.7 0.3
v -0.3 1.4 0.3
v 0.3 0.7 0.3
v 0.3 1.4 0.3
v -0.5 1.2 0.2
v -0.5 1.4 0.2
v -0.3 0 0.2
v -0.3 0.5 0.2
v -0.3 0.6 0.2
v -0.3 0.7 0.2
v -0.3 1.2 0.2
v -0.3 1.4 0.2
v -0.2 0.5 0.2
v -0.2 0.6 0.2
v -0.1 0 0.2
v -0.1 0.7 0.2
v -0.1 1.4 0.2
v -0.1 1.5 0.2
v 0.1 0 0.2
v 0.1 0.7 0.2
v 0.1 1.4 0.2
v 0.1 1.5 0.2
v 0.2 0.5 0.2
v 0.2 0.6 0.2
v 0.3 0 0.2
v 0.3 0.5 0.2
v 0.3 0.6 0.2
v 0.3 0.7 0.2
v 0.3 1.2 0.2
v 0.3 1.4 0.2
v 0.5 1.2 0.2
v 0.5 1.4 0.2
v -0.3 0.1 0
v -0.3 0.2 0
v -0.3 0.3 0
v -0.3 0.7 0
v -0.2 0.2 0
v -0.2 0.3 0
v -0.2 0.5 0
v -0.2 0.6 0
v -0.1 0.1 0
v -0.1 0.5 0
v -0.1 0.6 0
v -0.1 0.7 0
v -0.1 1.4 0
v -0.1 1.5 0
v 0.1 0.1 0
v 0.1 0.5 0
v 0.1 0.6 0
v 0.1 0.7 0
v 0.1 1.4 0
v 0.1 1.5 0
v 0.2 0.2 0
v 0.2 0.3 0
v 0.2 0.5 0
v 0.2 0.6 0
v 0.3 0.1 0
v 0.3 0.2 0
v 0.3 0.3 0
v 0.3 0.7 0
v -0.3 0.7 -0.1
v -0.3 1 -0.1
v -0.3 1.1 -0.1
v -0.3 1.2 -0.1
v -0.3 1.3 -0.1
v -0.3 1.4 -0.1
v -0.2 1 -0.1
v -0.2 1.1 -0.1
v -0.2 1.2 -0.1
v -0.2 1.3 -0.1
v -0.1 1.2 -0.1
v -0.1 1.3 -0.1
v 0.1 1.2 -0.1
v 0.1 1.3 -0.1
v 0.2 1 -0.1
v 0.2 1.1 -0.1
v 0.2 1.2 -0.1
v 0.2 1.3 -0.1
v 0.3 0.7 -0.1
v 0.3 1 -0.1
v 0.3 1.1 -0.1
v 0.3 1.2 -0.1
v 0.3 1.3 -0.1
v 0.3 1.4 -0.1
v -0.3 0 -0.2
v -0.3 0.1 -0.2
v -0.3 1.5 -0.2
v -0.3 2 -0.2
v -0.3 2.1 -0.2
v -0.2 0 -0.2
v -0.2 0.1 -0.2
v -0.2 1.5 -0.2
v -0.2 1.7 -0.2
v -0.2 1.8 -0.2
v -0.2 1.9 -0.2
v -0.2 2 -0.2
v -0.1 0 -0.2
v -0.1 0.1 -0.2
v -0.1 1.5 -0.2
v -0.1 1.6 -0.2
v -0.1 1.9 -0.2
v -0.1 2 -0.2
v -0.1 2.1 -0.2
v 0.1 0 -0.2
v 0.1 0.1 -0.2
v 0.1 1.5 -0.2
v 0.1 1.6 -0.2
v 0.1 1.9 -0.2
v 0.1 2 -0.2
v 0.1 2.1 -0.2
v 0.2 0 -0.2
v 0.2 0.1 -0.2
v 0.2 1.5 -0.2
v 0.2 1.7 -0.2
v 0.2 1.8 -0.2
v 0.2 1.9 -0.2
v 0.2 2 -0.2
v 0.3 0 -0.2
v 0.3 0.1 -0.2
v 0.3 1.5 -0.2
v 0.3 2 -0.2
v 0.3 2.1 -0.2
v -0.5 1.2 -0.6
v -0.5 1.3 -0.6
v -0.4 1.3 -0.6
v -0.3 1.2 -0.6
v -0.3 1.3 -0.6
v 0.3 1.2 -0.6
v 0.3 1.3 -0.6
v 0.4 1.3 -0.6
v 0.5 1.2 -0.6
v 0.5 1.3 -0.6
v -0.5 1.3 -0.7
v -0.5 1.4 -0.7
v -0.4 1.3 -0.7
v -0.4 1.4 -0.7
v -0.3 1.3 -0.7
v -0.3 1.4 -0.7
v 0.3 1.3 -0.7
v 0.3 1.4 -0.7
v 0.4 1.3 -0.7
v 0.4 1.4 -0.7
v 0.5 1.3 -0.7
v 0.5 1.4 -0.7
v -0.3 0 0.2
v -0.1 0 0.2
v 0.1 0 0.2
v 0.3 0 0.2
v -0.3 0 -0.1
v -0.2 0 -0.1
v 0.2 0 -0.1
v 0.3 0 -0.1
v -0.3 0 -0.2
v -0.2 0 -0.2
v -0.1 0 -0.2
v 0.1 0 -0.2
v 0.2 0 -0.2
v 0.3 0 -0.2
v -0.3 0.7 0.3
v 0.3 0.7 0.3
v -0.3 0.7 0.2
v -0.1 0.7 0.2
v 0.1 0.7 0.2
v 0.3 0.7 0.2
v -0.3 0.7 0
v -0.1 0.7 0
v 0.1 0.7 0
v 0.3 0.7 0
v -0.3 0.7 -0.1
v 0.3 0.7 -0.1
v -0.5 1.2 0.2
v -0.3 1.2 0.2
v 0.3 1.2 0.2
v 0.5 1.2 0.2
v -0.4 1.2 -0.1
v -0.3 1.2 -0.1
v 0.3 1.2 -0.1
v 0.4 1.2 -0.1
v -0.4 1.2 -0.2
v -0.3 1.2 -0.2
v 0.3 1.2 -0.2
v 0.4 1.2 -0.2
v -0.4 1.2 -0.4
v -0.3 1.2 -0.4
v 0.3 1.2 -0.4
v 0.4 1.2 -0.4
v -0.4 1.2 -0.5
v -0.3 1.2 -0.5
v 0.3 1.2 -0.5
v 0.4 1.2 -0.5
v -0.5 1.2 -0.6
v -0.3 1.2 -0.6
v 0.3 1.2 -0.6
v 0.5 1.2 -0.6
v -0.5 1.3 -0.6
v -0.4 1.3 -0.6
v -0.3 1.3 -0.6
v 0.3 1.3 -0.6
v 0.4 1.3 -0.6
v 0.5 1.3 -0.6
v -0.5 1.3 -0.7
v -0.4 1.3 -0.7
v -0.3 1.3 -0.7
v 0.3 1.3 -0.7
v 0.4 1.3 -0.7
v 0.5 1.3 -0.7
v -0.3 1.5 0.4
v 0.3 1.5 0.4
v -0.1 1.5 0.2
v 0.1 1.5 0.2
v -0.3 1.5 0
v -0.2 1.5 0
v -0.1 1.5 0
v 0.1 1.5 0
v 0.2 1.5 0
v 0.3 1.5 0
v -0.3 1.5 -0.1
v -0.2 1.5 -0.1
v -0.1 1.5 -0.1
v 0.1 1.5 -0.1
v 0.2 1.5 -0.1
v 0.3 1.5 -0.1
v -0.3 1.5 -0.2
v -0.2 1.5 -0.2
v -0.1 1.5 -0.2
v 0.1 1.5 -0.2
v 0.2 1.5 -0.2
v 0.3 1.5 -0.2
v -0.3 0.1 0
v -0.1 0.1 0
v 0.1 0.1 0
v 0.3 0.1 0
v -0.3 0.1 -0.1
v -0.2 0.1 -0.1
v 0.2 0.1 -0.1
v 0.3 0.1 -0.1
v -0.3 0.1 -0.2
v -0.2 0.1 -0.2
v -0.1 0.1 -0.2
v 0.1 0.1 -0.2
v 0.2 0.1 -0.2
v 0.3 0.1 -0.2
v -0.3 1.4 0.3
v 0.3 1.4 0.3
v -0.5 1.4 0.2
v -0.3 1.4 0.2
v -0.2 1.4 0.2
v -0.1 1.4 0.2
v 0.1 1.4 0.2
v 0.2 1.4 0.2
v 0.3 1.4 0.2
v 0.5 1.4 0.2
v -0.5 1.4 0.1
v -0.4 1.4 0.1
v -0.3 1.4 0.1
v -0.2 1.4 0.1
v 0.2 1.4 0.1
v 0.3 1.4 0.1
v 0.4 1.4 0.1
v 0.5 1.4 0.1
v -0.5 1.4 0
v -0.4 1.4 0
v -0.1 1.4 0
v 0.1 1.4 0
v 0.4 1.4 0
v 0.5 1.4 0
v -0.5 1.4 -0.1
v -0.4 1.4 -0.1
v -0.3 1.4 -0.1
v 0.3 1.4 -0.1
v 0.4 1.4 -0.1
v 0.5 1.4 -0.1
v -0.5 1.4 -0.2
v -0.4 1.4 -0.2
v 0.4 1.4 -0.2
v 0.5 1.4 -0.2
v -0.5 1.4 -0.6
v -0.4 1.4 -0.6
v 0.4 1.4 -0.6
v 0.5 1.4 -0.6
v -0.5 1.4 -0.7
v -0.4 1.4 -0.7
v -0.3 1.4 -0.7
v 0.3 1.4 -0.7
v 0.4 1.4 -0.7
v 0.5 1.4 -0.7
v -0.3 2.1 0.4
v -0.1 2.1 0.4
v 0.1 2.1 0.4
v 0.3 2.1 0.4
v -0.1 2.1 0.3
v 0.1 2.1 0.3
v -0.1 2.1 0.1
v 0.1 2.1 0.1
v -0.1 2.1 0
v 0.1 2.1 0
v -0.3 2.1 -0.1
v -0.1 2.1 -0.1
v 0.1 2.1 -0.1
v 0.3 2.1 -0.1
v -0.3 2.1 -0.2
v -0.1 2.1 -0.2
v 0.1 2.1 -0.2
v 0.3 2.1 -0.2

# faces
f 3/1/1 2/1/1 1/1/1
f 4/1/1 2/1/1 3/1/1
f 5/1/1 2/1/1 4/1/1
f 6/1/1 2/1/1 5/1/1
f 7/1/1 2/1/1 6/1/1
f 9/1/1 3/1/1 1/1/1
f 10/2/1 4/2/1 3/2/1
f 10/1/1 3/1/1 9/1/1
f 11/1/1 5/1/1 4/1/1
f 11/2/1 4/2/1 10/2/1
f 12/2/1 6/2/1 5/2/1
f 12/1/1 5/1/1 11/1/1
f 13/1/1 7/1/1 6/1/1
f 13/2/1 6/2/1 12/2/1
f 14/2/1 8/2/1 7/2/1
f 14/1/1 7/1/1 13/1/1
f 15/2/1 8/2/1 14/2/1
f 19/1/1 17/1/1 16/1/1
f 20/3/1 18/3/1 17/3/1
f 20/1/1 17/1/1 19/1/1
f 21/3/1 18/3/1 20/3/1
f 22/1/1 19/1/1 16/1/1
f 23/1/1 19/1/1 22/1/1
f 24/1/1 22/1/1 16/1/1
f 24/3/1 23/3/1 22/3/1
f 25/3/1 23/3/1 24/3/1
f 26/1/1 24/1/1 16/1/1
f 26/1/1 25/1/1 24/1/1
f 27/1/1 25/1/1 26/1/1
f 28/3/1 27/3/1 26/3/1
f 29/1/1 25/1/1 27/1/1
f 29/3/1 27/3/1 28/3/1
f 31/1/1 29/1/1 28/1/1
f 32/1/1 25/1/1 29/1/1
f 32/1/1 29/1/1 31/1/1
f 34/1/1 32/1/1 31/1/1
f 34/1/1 33/1/1 32/1/1
f 34/1/1 31/1/1 30/1/1
f 35/1/1 33/1/1 34/1/1
f 36/1/1 34/1/1 30/1/1
f 36/3/1 35/3/1 34/3/1
f 37/3/1 35/3/1 36/3/1
f 38/1/1 36/1/1 30/1/1
f 38/1/1 37/1/1 36/1/1
f 39/1/1 37/1/1 38/1/1
f 40/1/1 38/1/1 30/1/1
f 41/1/1 38/1/1 40/1/1
f 46/7/1 43/7/1 42/7/1
f 47/7/1 43/7/1 46/7/1
f 48/3/1 44/3/1 43/3/1
f 48/7/1 43/7/1 47/7/1
f 49/7/1 45/7/1 44/7/1
f 49/3/1 44/3/1 48/3/1
f 50/3/1 47/3/1 46/3/1
f 50/7/1 46/7/1 42/7/1
f 51/7/1 48/7/1 47/7/1
f 51/3/1 47/3/1 50/3/1
f 51/7/1 49/7/1 48/7/1
f 52/7/1 50/7/1 42/7/1
f 52/7/1 51/7/1 50/7/1
f 53/7/1 51/7/1 52/7/1
f 54/7/1 52/7/1 42/7/1
f 54/3/1 53/3/1 52/3/1
f 55/7/1 51/7/1 53/7/1
f 55/3/1 53/3/1 54/3/1
f 56/7/1 45/7/1 49/7/1
f 56/7/1 51/7/1 55/7/1
f 56/7/1 55/7/1 54/7/1
f 56/7/1 49/7/1 51/7/1
f 57/7/1 45/7/1 56/7/1
f 58/7/1 54/7/1 42/7/1
f 58/7/1 56/7/1 54/7/1
f 59/3/1 57/3/1 56/3/1
f 59/7/1 56/7/1 58/7/1
f 60/3/1 57/3/1 59/3/1
f 63/7/1 62/7/1 61/7/1
f 64/7/1 62/7/1 63/7/1
f 67/1/1 66/1/1 65/1/1
f 68/1/1 66/1/1 67/1/1
f 69/1/1 67/1/1 65/1/1
f 70/1/1 67/1/1 69/1/1
f 71/1/1 69/1/1 65/1/1
f 71/3/1 70/3/1 69/3/1
f 72/3/1 70/3/1 71/3/1
f 73/1/1 71/1/1 65/1/1
f 73/1/1 72/1/1 71/1/1
f 74/1/1 72/1/1 73/1/1
f 80/2/1 76/2/1 75/2/1
f 81/1/1 77/1/1 76/1/1
f 81/2/1 76/2/1 80/2/1
f 82/2/1 78/2/1 77/2/1
f 82/1/1 77/1/1 81/1/1
f 83/1/1 79/1/1 78/1/1
f 83/2/1 78/2/1 82/2/1
f 84/1/1 79/1/1 83/1/1
f 86/1/1 82/1/1 81/1/1
f 86/1/1 85/1/1 84/1/1
f 86/1/1 84/1/1 83/1/1
f 86/1/1 83/1/1 82/1/1
f 86/1/1 81/1/1 80/1/1
f 87/1/1 85/1/1 86/1/1
f 88/2/2 89/2/2 93/2/2
f 89/1/2 90/1/2 94/1/2
f 93/2/2 89/2/2 94/2/2
f 90/2/2 91/2/2 95/2/2
f 94/1/2 90/1/2 95/1/2
f 91/1/2 92/1/2 96/1/2
f 95/2/2 91/2/2 96/2/2
f 96/1/2 92/1/2 97/1/2
f 94/1/2 95/1/2 99/1/2
f 97/1/2 98/1/2 99/1/2
f 96/1/2 97/1/2 99/1/2
f 95/1/2 96/1/2 99/1/2
f 93/1/2 94/1/2 99/1/2
f 99/1/2 98/1/2 100/1/2
f 101/1/2 102/1/2 103/1/2
f 103/1/2 102/1/2 104/1/2
f 101/1/2 103/1/2 105/1/2
f 105/1/2 103/1/2 106/1/2
f 101/1/2 105/1/2 107/1/2
f 105/3/2 106/3/2 107/3/2
f 107/3/2 106/3/2 108/3/2
f 101/1/2 107/1/2 109/1/2
f 107/1/2 108/1/2 109/1/2
f 109/1/2 108/1/2 110/1/2
f 111/7/2 112/7/2 113/7/2
f 113/7/2 112/7/2 114/7/2
f 115/1/2 116/1/2 118/1/2
f 116/3/2 117/3/2 119/3/2
f 118/1/2 116/1/2 119/1/2
f 119/3/2 117/3/2 120/3/2
f 115/1/2 118/1/2 121/1/2
f 121/1/2 118/1/2 122/1/2
f 115/1/2 121/1/2 123/1/2
f 121/3/2 122/3/2 123/3/2
f 123/3/2 122/3/2 124/3/2
f 115/1/2 123/1/2 125/1/2
f 123/1/2 124/1/2 125/1/2
f 125/1/2 124/1/2 126/1/2
f 125/3/2 126/3/2 127/3/2
f 126/1/2 124/1/2 128/1/2
f 127/3/2 126/3/2 128/3/2
f 127/1/2 128/1/2 130/1/2
f 128/1/2 124/1/2 131/1/2
f 130/1/2 128/1/2 131/1/2
f 130/1/2 131/1/2 133/1/2
f 131/1/2 132/1/2 133/1/2
f 129/1/2 130/1/2 133/1/2
f 133/1/2 132/1/2 134/1/2
f 129/1/2 133/1/2 135/1/2
f 133/3/2 134/3/2 135/3/2
f 135/3/2 134/3/2 136/3/2
f 129/1/2 135/1/2 137/1/2
f 135/1/2 136/1/2 137/1/2
f 137/1/2 136/1/2 138/1/2
f 129/1/2 137/1/2 139/1/2
f 139/1/2 137/1/2 140/1/2
f 141/7/2 142/7/2 145/7/2
f 145/7/2 142/7/2 146/7/2
f 142/3/2 143/3/2 147/3/2
f 146/7/2 142/7/2 147/7/2
f 143/7/2 144/7/2 148/7/2
f 147/3/2 143/3/2 148/3/2
f 145/3/2 146/3/2 149/3/2
f 141/7/2 145/7/2 149/7/2
f 146/7/2 147/7/2 150/7/2
f 149/3/2 146/3/2 150/3/2
f 147/7/2 148/7/2 150/7/2
f 141/7/2 149/7/2 151/7/2
f 149/7/2 150/7/2 151/7/2
f 151/7/2 150/7/2 152/7/2
f 141/7/2 151/7/2 153/7/2
f 151/3/2 152/3/2 153/3/2
f 152/7/2 150/7/2 154/7/2
f 153/3/2 152/3/2 154/3/2
f 148/7/2 144/7/2 155/7/2
f 154/7/2 150/7/2 155/7/2
f 153/7/2 154/7/2 155/7/2
f 150/7/2 148/7/2 155/7/2
f 155/7/2 144/7/2 156/7/2
f 141/7/2 153/7/2 157/7/2
f 153/7/2 155/7/2 157/7/2
f 155/3/2 156/3/2 158/3/2
f 157/7/2 155/7/2 158/7/2
f 158/3/2 156/3/2 159/3/2
f 160/1/2 161/1/2 162/1/2
f 162/1/2 161/1/2 163/1/2
f 163/1/2 161/1/2 164/1/2
f 164/1/2 161/1/2 165/1/2
f 165/1/2 161/1/2 166/1/2
f 160/1/2 162/1/2 168/1/2
f 162/2/2 163/2/2 169/2/2
f 168/1/2 162/1/2 169/1/2
f 163/1/2 164/1/2 170/1/2
f 169/2/2 163/2/2 170/2/2
f 164/2/2 165/2/2 171/2/2
f 170/1/2 164/1/2 171/1/2
f 165/1/2 166/1/2 172/1/2
f 171/2/2 165/2/2 172/2/2
f 166/2/2 167/2/2 173/2/2
f 172/1/2 166/1/2 173/1/2
f 173/2/2 167/2/2 174/2/2
f 177/7/3 176/7/3 175/7/3
f 178/7/3 176/7/3 177/7/3
f 179/7/3 177/7/3 175/7/3
f 179/3/3 178/3/3 177/3/3
f 180/3/3 178/3/3 179/3/3
f 181/7/3 179/7/3 175/7/3
f 181/7/3 180/7/3 179/7/3
f 182/7/3 180/7/3 181/7/3
f 185/1/3 184/1/3 183/1/3
f 186/1/3 184/1/3 185/1/3
f 193/1/3 188/1/3 187/1/3
f 194/1/3 188/1/3 193/1/3
f 195/1/3 190/1/3 189/1/3
f 195/3/3 191/3/3 190/3/3
f 196/1/3 192/1/3 191/1/3
f 196/3/3 191/3/3 195/3/3
f 197/1/3 195/1/3 189/1/3
f 197/1/3 196/1/3 195/1/3
f 198/1/3 192/1/3 196/1/3
f 198/1/3 196/1/3 197/1/3
f 203/7/3 200/7/3 199/7/3
f 204/7/3 200/7/3 203/7/3
f 205/1/3 202/1/3 201/1/3
f 206/1/3 202/1/3 205/1/3
f 207/1/3 205/1/3 201/1/3
f 208/3/3 206/3/3 205/3/3
f 208/1/3 205/1/3 207/1/3
f 209/1/3 202/1/3 206/1/3
f 209/3/3 206/3/3 208/3/3
f 210/1/3 202/1/3 209/1/3
f 213/1/3 212/1/3 211/1/3
f 214/1/3 212/1/3 213/1/3
f 215/1/4 216/1/4 219/1/4
f 216/3/4 217/3/4 219/3/4
f 217/1/4 218/1/4 220/1/4
f 219/3/4 217/3/4 220/3/4
f 220/1/4 218/1/4 221/1/4
f 221/1/4 218/1/4 222/1/4
f 215/1/4 219/1/4 223/1/4
f 219/1/4 220/1/4 223/1/4
f 220/1/4 221/1/4 223/1/4
f 221/3/4 222/3/4 224/3/4
f 223/1/4 221/1/4 224/1/4
f 222/1/4 218/1/4 225/1/4
f 224/3/4 222/3/4 225/3/4
f 225/1/4 218/1/4 226/1/4
f 227/7/4 228/7/4 233/7/4
f 233/7/4 228/7/4 234/7/4
f 229/1/4 230/1/4 235/1/4
f 235/1/4 230/1/4 236/1/4
f 230/3/4 231/3/4 237/3/4
f 236/1/4 230/1/4 237/1/4
f 231/1/4 232/1/4 238/1/4
f 237/3/4 231/3/4 238/3/4
f 229/1/4 235/1/4 239/1/4
f 235/3/4 236/3/4 240/3/4
f 239/1/4 235/1/4 240/1/4
f 236/1/4 237/1/4 241/1/4
f 240/3/4 236/3/4 241/3/4
f 237/1/4 238/1/4 241/1/4
f 238/1/4 232/1/4 242/1/4
f 241/1/4 238/1/4 242/1/4
f 243/1/4 244/1/4 249/1/4
f 244/3/4 245/3/4 249/3/4
f 247/1/4 248/1/4 250/1/4
f 249/3/4 245/3/4 250/3/4
f 246/1/4 247/1/4 250/1/4
f 245/1/4 246/1/4 250/1/4
f 250/1/4 248/1/4 251/1/4
f 251/1/4 248/1/4 252/1/4
f 249/1/4 250/1/4 253/1/4
f 250/1/4 251/1/4 253/1/4
f 251/3/4 252/3/4 253/3/4
f 252/1/4 248/1/4 254/1/4
f 253/3/4 252/3/4 254/3/4
f 249/1/4 253/1/4 255/1/4
f 253/1/4 254/1/4 255/1/4
f 254/1/4 248/1/4 256/1/4
f 255/1/4 254/1/4 256/1/4
f 243/1/4 249/1/4 257/1/4
f 249/1/4 255/1/4 257/1/4
f 257/1/4 255/1/4 258/1/4
f 255/3/4 256/3/4 259/3/4
f 258/1/4 255/1/4 259/1/4
f 256/1/4 248/1/4 260/1/4
f 259/3/4 256/3/4 260/3/4
f 243/1/4 257/1/4 261/1/4
f 257/3/4 258/3/4 262/3/4
f 261/1/4 257/1/4 262/1/4
f 258/1/4 259/1/4 263/1/4
f 262/3/4 258/3/4 263/3/4
f 259/1/4 260/1/4 263/1/4
f 263/1/4 260/1/4 264/1/4
f 260/1/4 248/1/4 265/1/4
f 264/1/4 260/1/4 265/1/4
f 265/1/4 248/1/4 266/1/4
f 267/3/4 268/3/4 272/3/4
f 272/3/4 268/3/4 273/3/4
f 269/7/4 270/7/4 274/7/4
f 274/7/4 270/7/4 275/7/4
f 275/7/4 270/7/4 276/7/4
f 276/7/4 270/7/4 277/7/4
f 270/3/4 271/3/4 278/3/4
f 277/7/4 270/7/4 278/7/4
f 272/1/4 273/1/4 279/1/4
f 279/1/4 273/1/4 280/1/4
f 274/4/4 275/4/4 281/4/4
f 281/4/4 275/4/4 282/4/4
f 276/7/4 277/7/4 283/7/4
f 277/5/4 278/5/4 283/5/4
f 278/3/4 271/3/4 284/3/4
f 283/5/4 278/5/4 284/5/4
f 284/3/4 271/3/4 285/3/4
f 281/7/4 282/7/4 288/7/4
f 282/4/4 275/4/4 289/4/4
f 288/7/4 282/7/4 289/7/4
f 276/7/4 283/7/4 290/7/4
f 283/3/4 284/3/4 290/3/4
f 284/7/4 285/7/4 291/7/4
f 290/3/4 284/3/4 291/3/4
f 291/7/4 285/7/4 292/7/4
f 286/1/4 287/1/4 293/1/4
f 293/1/4 287/1/4 294/1/4
f 288/4/4 289/4/4 295/4/4
f 289/4/4 275/4/4 296/4/4
f 295/4/4 289/4/4 296/4/4
f 275/6/4 276/6/4 296/6/4
f 276/7/4 290/7/4 297/7/4
f 296/6/4 276/6/4 297/6/4
f 290/5/4 291/5/4 298/5/4
f 297/7/4 290/7/4 298/7/4
f 291/3/4 292/3/4 299/3/4
f 298/5/4 291/5/4 299/5/4
f 293/3/4 294/3/4 300/3/4
f 300/3/4 294/3/4 301/3/4
f 295/7/4 296/7/4 302/7/4
f 296/7/4 297/7/4 302/7/4
f 297/7/4 298/7/4 302/7/4
f 298/7/4 299/7/4 302/7/4
f 299/3/4 292/3/4 303/3/4
f 302/7/4 299/7/4 303/7/4
f 303/3/4 292/3/4 304/3/4
f 305/1/4 306/1/4 307/1/4
f 305/1/4 307/1/4 308/1/4
f 308/1/4 307/1/4 309/1/4
f 310/1/4 311/1/4 312/1/4
f 310/1/4 312/1/4 313/1/4
f 313/1/4 312/1/4 314/1/4
f 315/2/4 316/2/4 317/2/4
f 317/2/4 316/2/4 318/2/4
f 317/1/4 318/1/4 319/1/4
f 319/1/4 318/1/4 320/1/4
f 321/1/4 322/1/4 323/1/4
f 323/1/4 322/1/4 324/1/4
f 323/2/4 324/2/4 325/2/4
f 325/2/4 324/2/4 326/2/4
f 331/1/5 328/1/5 327/1/5
f 332/1/5 328/1/5 331/1/5
f 333/1/5 330/1/5 329/1/5
f 334/1/5 330/1/5 333/1/5
f 335/3/5 332/3/5 331/3/5
f 336/1/5 328/1/5 332/1/5
f 336/3/5 332/3/5 335/3/5
f 337/1/5 328/1/5 336/1/5
f 338/1/5 333/1/5 329/1/5
f 339/3/5 334/3/5 333/3/5
f 339/1/5 333/1/5 338/1/5
f 340/3/5 334/3/5 339/3/5
f 343/1/5 342/1/5 341/1/5
f 344/1/5 342/1/5 343/1/5
f 345/1/5 342/1/5 344/1/5
f 346/1/5 342/1/5 345/1/5
f 348/1/5 345/1/5 344/1/5
f 349/1/5 345/1/5 348/1/5
f 351/1/5 348/1/5 347/1/5
f 351/1/5 350/1/5 349/1/5
f 351/1/5 349/1/5 348/1/5
f 352/1/5 350/1/5 351/1/5
f 357/1/5 354/1/5 353/1/5
f 358/1/5 354/1/5 357/1/5
f 359/1/5 356/1/5 355/1/5
f 360/1/5 356/1/5 359/1/5
f 361/2/5 358/2/5 357/2/5
f 361/1/5 357/1/5 353/1/5
f 362/2/5 358/2/5 361/2/5
f 363/2/5 360/2/5 359/2/5
f 364/1/5 356/1/5 360/1/5
f 364/2/5 360/2/5 363/2/5
f 365/1/5 362/1/5 361/1/5
f 365/1/5 361/1/5 353/1/5
f 366/1/5 362/1/5 365/1/5
f 367/1/5 364/1/5 363/1/5
f 368/1/5 356/1/5 364/1/5
f 368/1/5 364/1/5 367/1/5
f 369/2/5 366/2/5 365/2/5
f 369/1/5 365/1/5 353/1/5
f 370/2/5 366/2/5 369/2/5
f 371/2/5 368/2/5 367/2/5
f 372/1/5 356/1/5 368/1/5
f 372/2/5 368/2/5 371/2/5
f 373/1/5 370/1/5 369/1/5
f 373/1/5 369/1/5 353/1/5
f 374/1/5 370/1/5 373/1/5
f 375/1/5 372/1/5 371/1/5
f 376/1/5 356/1/5 372/1/5
f 376/1/5 372/1/5 375/1/5
f 383/2/5 378/2/5 377/2/5
f 384/1/5 379/1/5 378/1/5
f 384/2/5 378/2/5 383/2/5
f 385/1/5 379/1/5 384/1/5
f 386/1/5 381/1/5 380/1/5
f 387/2/5 382/2/5 381/2/5
f 387/1/5 381/1/5 386/1/5
f 388/2/5 382/2/5 387/2/5
f 391/7/5 390/7/5 389/7/5
f 392/7/5 390/7/5 391/7/5
f 393/7/5 391/7/5 389/7/5
f 394/7/5 391/7/5 393/7/5
f 395/7/5 391/7/5 394/7/5
f 396/7/5 390/7/5 392/7/5
f 397/7/5 390/7/5 396/7/5
f 398/7/5 390/7/5 397/7/5
f 399/3/5 394/3/5 393/3/5
f 400/7/5 395/7/5 394/7/5
f 400/3/5 394/3/5 399/3/5
f 400/7/5 396/7/5 395/7/5
f 400/7/5 397/7/5 396/7/5
f 401/7/5 397/7/5 400/7/5
f 402/7/5 397/7/5 401/7/5
f 403/3/5 398/3/5 397/3/5
f 403/7/5 397/7/5 402/7/5
f 404/3/5 398/3/5 403/3/5
f 405/7/5 400/7/5 399/7/5
f 406/4/5 401/4/5 400/4/5
f 406/7/5 400/7/5 405/7/5
f 407/7/5 402/7/5 401/7/5
f 407/4/5 401/4/5 406/4/5
f 408/4/5 403/4/5 402/4/5
f 408/7/5 402/7/5 407/7/5
f 409/7/5 404/7/5 403/7/5
f 409/4/5 403/4/5 408/4/5
f 410/7/5 404/7/5 409/7/5
f 411/1/6 412/1/6 415/1/6
f 415/1/6 412/1/6 416/1/6
f 413/1/6 414/1/6 417/1/6
f 417/1/6 414/1/6 418/1/6
f 415/3/6 416/3/6 419/3/6
f 416/1/6 412/1/6 420/1/6
f 419/3/6 416/3/6 420/3/6
f 420/1/6 412/1/6 421/1/6
f 413/1/6 417/1/6 422/1/6
f 417/3/6 418/3/6 423/3/6
f 422/1/6 417/1/6 423/1/6
f 423/3/6 418/3/6 424/3/6
f 425/1/6 426/1/6 428/1/6
f 428/1/6 426/1/6 429/1/6
f 429/1/6 426/1/6 430/1/6
f 430/1/6 426/1/6 431/1/6
f 431/1/6 426/1/6 432/1/6
f 432/1/6 426/1/6 433/1/6
f 427/1/6 428/1/6 435/1/6
f 435/1/6 428/1/6 436/1/6
f 428/3/6 429/3/6 437/3/6
f 436/1/6 428/1/6 437/1/6
f 429/1/6 430/1/6 438/1/6
f 437/3/6 429/3/6 438/3/6
f 432/3/6 433/3/6 439/3/6
f 431/1/6 432/1/6 439/1/6
f 433/1/6 434/1/6 440/1/6
f 439/3/6 433/3/6 440/3/6
f 440/1/6 434/1/6 441/1/6
f 441/1/6 434/1/6 442/1/6
f 435/2/6 436/2/6 443/2/6
f 436/1/6 437/1/6 444/1/6
f 443/2/6 436/2/6 444/2/6
f 437/1/6 438/1/6 444/1/6
f 438/1/6 430/1/6 445/1/6
f 444/1/6 438/1/6 445/1/6
f 431/1/6 439/1/6 446/1/6
f 439/1/6 440/1/6 446/1/6
f 440/1/6 441/1/6 446/1/6
f 441/2/6 442/2/6 447/2/6
f 446/1/6 441/1/6 447/1/6
f 447/2/6 442/2/6 448/2/6
f 444/1/6 445/1/6 449/1/6
f 443/1/6 444/1/6 449/1/6
f 447/1/6 448/1/6 449/1/6
f 446/1/6 447/1/6 449/1/6
f 445/1/6 446/1/6 449/1/6
f 449/1/6 448/1/6 450/1/6
f 450/1/6 448/1/6 451/1/6
f 451/1/6 448/1/6 452/1/6
f 452/1/6 448/1/6 453/1/6
f 453/1/6 448/1/6 454/1/6
f 449/2/6 450/2/6 455/2/6
f 450/1/6 451/1/6 456/1/6
f 455/2/6 450/2/6 456/2/6
f 453/2/6 454/2/6 457/2/6
f 452/1/6 453/1/6 457/1/6
f 457/2/6 454/2/6 458/2/6
f 455/1/6 456/1/6 459/1/6
f 456/1/6 451/1/6 460/1/6
f 459/1/6 456/1/6 460/1/6
f 452/1/6 457/1/6 461/1/6
f 457/1/6 458/1/6 461/1/6
f 461/1/6 458/1/6 462/1/6
f 459/2/6 460/2/6 463/2/6
f 460/1/6 451/1/6 464/1/6
f 463/2/6 460/2/6 464/2/6
f 464/1/6 451/1/6 465/1/6
f 452/1/6 461/1/6 466/1/6
f 461/2/6 462/2/6 467/2/6
f 466/1/6 461/1/6 467/1/6
f 467/2/6 462/2/6 468/2/6
f 469/7/6 470/7/6 473/7/6
f 470/3/6 471/3/6 473/3/6
f 471/7/6 472/7/6 474/7/6
f 473/3/6 471/3/6 474/3/6
f 469/7/6 473/7/6 475/7/6
f 473/7/6 474/7/6 475/7/6
f 474/7/6 472/7/6 476/7/6
f 475/7/6 474/7/6 476/7/6
f 469/7/6 475/7/6 477/7/6
f 475/3/6 476/3/6 477/3/6
f 476/7/6 472/7/6 478/7/6
f 477/3/6 476/3/6 478/3/6
f 469/7/6 477/7/6 479/7/6
f 477/7/6 478/7/6 479/7/6
f 479/7/6 478/7/6 480/7/6
f 478/7/6 472/7/6 481/7/6
f 480/7/6 478/7/6 481/7/6
f 481/7/6 472/7/6 482/7/6
f 479/3/6 480/3/6 483/3/6
f 480/7/6 481/7/6 484/7/6
f 483/3/6 480/3/6 484/3/6
f 481/3/6 482/3/6 485/3/6
f 484/7/6 481/7/6 485/7/6
f 485/3/6 482/3/6 486/3/6
